<svg xmlns="http://www.w3.org/2000/svg" width="842.991" height="454.263" viewBox="0 0 842.991 454.263">
  <g id="effects" transform="translate(0.852 0.852)">
    <g id="Group_160" transform="translate(92.165 84.272)">
      <path id="Path_169" d="M151.7,248.192l8.077,24.006h26.139a1.413,1.413,0,0,1,.863,2.57L165.631,289.6l8.077,24.006a1.458,1.458,0,0,1-2.263,1.588L150.3,300.361,129.152,315.2a1.458,1.458,0,0,1-2.263-1.588l8.077-24.006-21.147-14.837a1.414,1.414,0,0,1,.865-2.57h26.139l8.077-24.006A1.488,1.488,0,0,1,151.7,248.192Z" transform="translate(-113.211 -79.758)" fill="#fff"/>
      <path id="Path_170" d="M598.521,359.335l6.07,18.68h19.641a1.1,1.1,0,0,1,.65,2l-15.891,11.544,6.07,18.68a1.106,1.106,0,0,1-1.7,1.235l-15.889-11.545-15.891,11.545a1.1,1.1,0,0,1-1.7-1.235l6.069-18.68-15.889-11.544a1.1,1.1,0,0,1,.648-2h19.642l6.069-18.68A1.1,1.1,0,0,1,598.521,359.335Z" transform="translate(39.279 -42.55)" fill="#fff"/>
      <path id="Path_171" d="M616.305,122.747l8.358,25.725h27.049a1.521,1.521,0,0,1,.894,2.752l-21.884,15.9,8.359,25.725a1.522,1.522,0,0,1-2.341,1.7l-21.884-15.9-21.883,15.9a1.522,1.522,0,0,1-2.341-1.7l8.358-25.725-21.882-15.9a1.521,1.521,0,0,1,.894-2.752h27.049l8.358-25.725A1.522,1.522,0,0,1,616.305,122.747Z" transform="translate(41.576 -121.696)" fill="#fff"/>
    </g>
    <g id="Group_161" transform="translate(0)">
      <path id="Path_172" d="M680.473,310.465H576.42a4.411,4.411,0,0,1-4.411-4.411h0a4.41,4.41,0,0,1,4.411-4.411H680.473a4.41,4.41,0,0,1,4.411,4.411h0A4.411,4.411,0,0,1,680.473,310.465Z" transform="translate(132.248 22.701)" fill="#e2d6c6"/>
      <path id="Path_173" d="M162.081,216.135H69.155a4.41,4.41,0,0,1-4.411-4.409h0a4.41,4.41,0,0,1,4.411-4.411h92.927a4.41,4.41,0,0,1,4.411,4.411h0A4.41,4.41,0,0,1,162.081,216.135Z" transform="translate(-37.24 -8.816)" fill="#e2d6c6"/>
      <rect id="Rectangle_76" width="18.59" height="18.006" rx="3.397" transform="translate(79.046 12.307)" fill="#ababd1"/>
      <rect id="Rectangle_77" width="17.239" height="16.697" rx="3.15" transform="translate(91.228 406.085)" fill="#e2d6c6"/>
      <rect id="Rectangle_78" width="17.239" height="16.697" rx="3.15" transform="translate(799.513 83.257)" fill="#ababd1"/>
      <path id="Path_174" d="M679.347,388.092a9.236,9.236,0,1,1-9.236-9.364A9.3,9.3,0,0,1,679.347,388.092Z" transform="translate(161.94 48.456)" fill="none" stroke="#fff" stroke-miterlimit="10" stroke-width="1.704"/>
      <path id="Path_175" d="M62.6,323.106a9.237,9.237,0,1,1-9.236-9.367A9.3,9.3,0,0,1,62.6,323.106Z" transform="translate(-44.128 26.742)" fill="none" stroke="#fff" stroke-miterlimit="10" stroke-width="1.704"/>
      <path id="Path_176" d="M599.95,67.895a9.236,9.236,0,1,1-9.236-9.366A9.3,9.3,0,0,1,599.95,67.895Z" transform="translate(135.412 -58.529)" fill="none" stroke="#fff" stroke-miterlimit="10" stroke-width="1.704"/>
      <path id="Path_177" d="M79.89,146.065a5.685,5.685,0,1,1-5.685-5.763A5.725,5.725,0,0,1,79.89,146.065Z" transform="translate(-35.977 -31.207)" fill="#fff"/>
      <path id="Path_178" d="M663.723,240.539a5.685,5.685,0,1,1-5.685-5.763A5.725,5.725,0,0,1,663.723,240.539Z" transform="translate(159.093 0.359)" fill="#fff"/>
    </g>
  </g>
</svg>
