<svg xmlns="http://www.w3.org/2000/svg" width="590.755" height="559.214" viewBox="0 0 590.755 559.214">
  <g id="instagram" transform="translate(0 0)">
    <rect id="Rectangle_79" data-name="Rectangle 79" width="393.883" height="430.708" transform="translate(97.733 14.66)" fill="#eee6dc"/>
    <g id="Group_187" data-name="Group 187" transform="translate(155.498 37.098)">
      <g id="Group_163" data-name="Group 163" transform="translate(71.243 283.549)">
        <path id="Path_179" data-name="Path 179" d="M348.248,270.943l-.122,8.079C339.053,292.8,320.188,334.46,317.92,392.33c0,0-1.458,21.927,3.455,77.284l-.907,39.9h53.765l14.37-149.9,26.161,149.522,60.313.376s-7.644-27.45-8.458-45.868c-1.053-23.821-3.585-133.37-39.585-184.6l-.759-8.1Z" transform="translate(-317.718 -270.943)" fill="#6a6abb"/>
        <line id="Line_7" data-name="Line 7" x2="78.907" transform="translate(30.409 8.078)" fill="none" stroke="#5252a3" stroke-miterlimit="10" stroke-width="1.731"/>
        <line id="Line_8" data-name="Line 8" y1="80.59" transform="translate(70.885 8.078)" fill="none" stroke="#5252a3" stroke-miterlimit="10" stroke-width="1.731"/>
        <line id="Line_9" data-name="Line 9" y1="7.311" x2="44.353" transform="translate(54.907 83.958)" fill="none" stroke="#5252a3" stroke-miterlimit="10" stroke-width="1.731"/>
        <line id="Line_10" data-name="Line 10" x2="19.175" y2="2.601" transform="translate(70.885 88.669)" fill="none" stroke="#5252a3" stroke-miterlimit="10" stroke-width="1.731"/>
        <path id="Path_180" data-name="Path 180" d="M380.218,276.8l-.12,53.471a16.626,16.626,0,0,1-4.169,10.242l-6.5,7.328" transform="translate(-298.041 -268.716)" fill="none" stroke="#5252a3" stroke-miterlimit="10" stroke-width="1.731"/>
      </g>
      <g id="Group_172" data-name="Group 172" transform="translate(0 163.086)">
        <g id="Group_164" data-name="Group 164" transform="translate(80.461)">
          <path id="Path_181" data-name="Path 181" d="M370.159,184.263l-37.284,6.825a11.306,11.306,0,0,0-8.4,12.306l21.229,100.753h78.026l23.567-98.8a11.306,11.306,0,0,0-8.464-12.317L401.7,183.683Z" transform="translate(-324.395 -183.683)" fill="#fff"/>
          <path id="Path_182" data-name="Path 182" d="M350.168,185.453s23,23.788,53.81.6" transform="translate(-314.588 -183.009)" fill="none" stroke="#ebebeb" stroke-miterlimit="10" stroke-width="1.84"/>
        </g>
        <g id="Group_166" data-name="Group 166" transform="translate(0 1.654)">
          <path id="Path_183" data-name="Path 183" d="M367.438,184.881S377,277.743,372.22,367.218l-47.382,5.2s1.871-49.294,1.247-64.9c-1.964-49.1-25.02-98.573-25.02-98.573s7.183-18.253,27.511-20.445Z" transform="translate(-252.811 -184.881)" fill="#dd8285"/>
          <path id="Path_184" data-name="Path 184" d="M316.992,198.809s-27.826,44.178-48.842,96.01c-5.569,13.735.578,27.82,14.693,32.34,15.458,4.951,38.032,11.994,67.769,14.882q2.162.211,4.378.4c65.083,5.619-1.477-.127-1.477-.127l13.511-42.891-40.456-16.447,11.188-18.589Z" transform="translate(-266.111 -179.581)" fill="#dd8285"/>
          <g id="Group_165" data-name="Group 165" transform="translate(45.564 41.084)">
            <line id="Line_11" data-name="Line 11" y1="61.814" x2="20.263" transform="translate(38.936 68.687)" fill="none" stroke="#c15f68" stroke-miterlimit="10" stroke-width="1.84"/>
            <path id="Path_185" data-name="Path 185" d="M317.863,262.739s-3.754-35.7-6.392-48.1" transform="translate(-294.416 -214.641)" fill="none" stroke="#c15f68" stroke-miterlimit="10" stroke-width="1.84"/>
            <line id="Line_12" data-name="Line 12" x1="15.447" y1="7.376" transform="translate(0 54.013)" fill="none" stroke="#c15f68" stroke-miterlimit="10" stroke-width="1.84"/>
            <line id="Line_13" data-name="Line 13" x2="29.56" y2="11.794" transform="translate(26.649 65.932)" fill="none" stroke="#c15f68" stroke-miterlimit="10" stroke-width="1.84"/>
            <line id="Line_14" data-name="Line 14" x2="13.858" y2="1.893" transform="translate(27.297 120.693)" fill="none" stroke="#c15f68" stroke-miterlimit="10" stroke-width="1.84"/>
          </g>
        </g>
        <g id="Group_171" data-name="Group 171" transform="translate(102.746 1.665)">
          <g id="Group_167" data-name="Group 167" transform="translate(58.993)">
            <path id="Path_186" data-name="Path 186" d="M403.057,187.523s45.651-2.84,53.114,35.735c4.749,24.551,24.787,71.2,21.867,102.546-1.843,19.79-26.731,32.456-48.032,23.883-5.579-2.245-10.071-5.7-11.52-10.974C413.655,321.119,403.057,187.523,403.057,187.523Z" transform="translate(-375.741 -183.905)" fill="#dd8285"/>
            <path id="Path_187" data-name="Path 187" d="M393.629,184.889S382.79,323.8,383.287,368.982l51.812,2.107s-3.291-109.831,1.63-166.139c.563-6.446-3.73-13.576-10.052-14.951C418.86,188.3,407.386,187.237,393.629,184.889Z" transform="translate(-383.27 -184.889)" fill="#dd8285"/>
            <line id="Line_15" data-name="Line 15" x2="0.029" y2="120.413" transform="translate(51.91 40.729)" fill="none" stroke="#c15f68" stroke-miterlimit="10" stroke-width="1.84"/>
          </g>
          <g id="Group_170" data-name="Group 170" transform="translate(0 17.178)">
            <g id="Group_168" data-name="Group 168" transform="translate(0 0)">
              <rect id="Rectangle_80" data-name="Rectangle 80" width="35.92" height="65.216" rx="5.234" transform="translate(7.016 0) rotate(6.176)" fill="#263238"/>
              <path id="Path_188" data-name="Path 188" d="M406.718,238.464s-3.733-10.083-25.53-25.118l-.864,7.982s-20.3.623-34.326-6.7a3.232,3.232,0,0,0-4.684,2.21,27.526,27.526,0,0,0,1.643,15.938c1.977,4.7,7.387,10.631,11.8,13.195,7.659,4.448,24.316,12.6,37.132,12.02C409.888,257.186,406.718,238.464,406.718,238.464Z" transform="translate(-340.435 -191.239)" fill="#ebaea3"/>
            </g>
            <g id="Group_169" data-name="Group 169" transform="translate(27.058 36.019)">
              <path id="Path_189" data-name="Path 189" d="M398.4,223.423l77.488,59.541-31.875,50.963-83.873-77.464Z" transform="translate(-360.138 -223.423)" fill="#dd8285"/>
              <line id="Line_16" data-name="Line 16" x2="56.319" y2="43.274" transform="translate(38.26)" fill="none" stroke="#c15f68" stroke-miterlimit="10" stroke-width="1.84"/>
              <line id="Line_17" data-name="Line 17" x2="49.755" y2="45.953" transform="translate(34.118 64.551)" fill="none" stroke="#c15f68" stroke-miterlimit="10" stroke-width="1.84"/>
            </g>
          </g>
        </g>
      </g>
      <g id="Group_186" data-name="Group 186" transform="translate(100.016)">
        <path id="Path_190" data-name="Path 190" d="M387.222,155.342a76.776,76.776,0,0,0-10.277,1.26c-5.986,1.113-10.873-2.032-12.077,2.02-.023.081-4.887-4.052-4.887-4.052l-3.691,41.172s18.279,9.7,35.573-.5Z" transform="translate(-331.813 -31.675)" fill="#ebaea3"/>
        <g id="Group_173" data-name="Group 173" transform="translate(15.345)">
          <path id="Path_191" data-name="Path 191" d="M381.907,107.528s23.645-20.04,7.262-35.474-34.585.235-35.943,9.524c-2.387,16.318,12.8,25.285,12.8,25.285Z" transform="translate(-348.421 -65.549)" fill="#673345"/>
          <path id="Path_192" data-name="Path 192" d="M365.276,95.735s-9.545.26-15.6-13.043c0,0,3.4,17.949,19.144,15.767Z" transform="translate(-349.675 -59.026)" fill="#673345"/>
          <path id="Path_193" data-name="Path 193" d="M375.837,94.781s7.742,1.187,16.228-12.873c0,0-3.8,17.186-19.635,15.764Z" transform="translate(-341.016 -59.324)" fill="#673345"/>
        </g>
        <path id="Path_194" data-name="Path 194" d="M357.081,152.52s5.178,21.065,31.452,19.49l-2.624-23.655Z" transform="translate(-331.512 -34.04)" fill="#1c2238" opacity="0.225"/>
        <g id="Group_174" data-name="Group 174" transform="translate(3.435 34.981)">
          <path id="Path_195" data-name="Path 195" d="M420.391,129.24c0,22.825-17.762,41.328-39.672,41.328s-39.672-18.5-39.672-41.328S358.81,90.888,380.72,90.888,420.391,106.416,420.391,129.24Z" transform="translate(-341.048 -90.888)" fill="#773e50"/>
        </g>
        <path id="Path_196" data-name="Path 196" d="M409.865,128.1a141.331,141.331,0,0,1-3.755,32.14c-1.837,7.785-7.006,13.225-14.31,17.6l-1.331.8a25.64,25.64,0,0,1-25.562.276h0c-7.914-4.5-13.456-10.441-15.161-18.794a206.413,206.413,0,0,1-3.44-32.024s-2.952-32.776,31.327-32.138S409.865,128.1,409.865,128.1Z" transform="translate(-335.636 -53.978)" fill="#ebaea3"/>
        <g id="Group_177" data-name="Group 177" transform="translate(0 84.643)">
          <path id="Path_197" data-name="Path 197" d="M352.969,149.674c-6.04,5.214-18.757-15.436-12.908-21s9.985,3.493,9.985,3.493l1.186,6.524L353,147.47l.456,1.97Z" transform="translate(-338.56 -126.862)" fill="#ebaea3"/>
          <g id="Group_176" data-name="Group 176" transform="translate(4.128 7.251)">
            <g id="Group_175" data-name="Group 175">
              <path id="Path_198" data-name="Path 198" d="M341.55,133.631s2.471-5.35,8.221,4.042" transform="translate(-341.55 -132.114)" fill="none" stroke="#1c2238" stroke-linecap="round" stroke-linejoin="round" stroke-width="1.177"/>
            </g>
          </g>
        </g>
        <g id="Group_180" data-name="Group 180" transform="translate(69.969 84.611)">
          <path id="Path_199" data-name="Path 199" d="M389.732,149.8c6.128,5.111,18.488-15.754,12.545-21.221s-9.923,3.662-9.923,3.662l-1.074,6.545-1.615,8.812-.421,1.977Z" transform="translate(-389.243 -126.838)" fill="#ebaea3"/>
          <g id="Group_179" data-name="Group 179" transform="translate(2.376 7.268)">
            <g id="Group_178" data-name="Group 178">
              <path id="Path_200" data-name="Path 200" d="M399.115,133.582s-2.562-5.305-8.151,4.183" transform="translate(-390.964 -132.103)" fill="none" stroke="#1c2238" stroke-linecap="round" stroke-linejoin="round" stroke-width="1.177"/>
            </g>
          </g>
        </g>
        <g id="Group_181" data-name="Group 181" transform="translate(8.221 39.699)">
          <path id="Path_201" data-name="Path 201" d="M395.8,125.949h21.267s-2.111-33.89-41.216-31.525c0,0-32.185.378-31.315,31.525H379.2l.733-3.4.82,3.4h12.24l1.208-8.068Z" transform="translate(-344.514 -94.305)" fill="#773e50"/>
          <line id="Line_18" data-name="Line 18" x1="1.208" y2="8.068" transform="translate(48.479 23.577)" fill="#e2a473"/>
        </g>
        <path id="Path_202" data-name="Path 202" d="M343.684,130.5l5,8.585-1.471-21.853Z" transform="translate(-336.61 -45.885)" fill="#773e50"/>
        <path id="Path_203" data-name="Path 203" d="M396.58,130.5l-5.138,8.585,1.2-21.853Z" transform="translate(-318.438 -45.885)" fill="#773e50"/>
        <g id="Group_185" data-name="Group 185" transform="translate(18.63 74.821)">
          <g id="Group_182" data-name="Group 182" transform="translate(5.978 10.619)">
            <path id="Path_204" data-name="Path 204" d="M362.524,130.508a3.07,3.07,0,1,1-3.069-3.069A3.07,3.07,0,0,1,362.524,130.508Z" transform="translate(-356.385 -127.439)" fill="#1c2238"/>
            <path id="Path_205" data-name="Path 205" d="M383.113,130.508a3.07,3.07,0,1,1-3.07-3.069A3.071,3.071,0,0,1,383.113,130.508Z" transform="translate(-348.551 -127.439)" fill="#1c2238"/>
          </g>
          <path id="Path_206" data-name="Path 206" d="M359.989,119.938s7.68-1.11,7.952,2.028c0,0,.126,2.127-6.584,2.965s-8.49.453-9.229-1.508S356.369,120.18,359.989,119.938Z" transform="translate(-352.055 -119.747)" fill="#1c2238"/>
          <path id="Path_207" data-name="Path 207" d="M382.271,119.957s7.754.294,7.456,3.429c0,0-.261,2.115-7.01,1.728s-8.434-1.086-8.806-3.148S378.668,119.543,382.271,119.957Z" transform="translate(-343.746 -119.725)" fill="#1c2238"/>
          <path id="Path_208" data-name="Path 208" d="M369.514,132.625l1.839,5.119-2.637,1.652" transform="translate(-345.715 -114.847)" fill="none" stroke="#1c2238" stroke-linecap="round" stroke-linejoin="round" stroke-width="1.158"/>
          <g id="Group_184" data-name="Group 184" transform="translate(12.117 27.71)">
            <g id="Group_183" data-name="Group 183">
              <path id="Path_209" data-name="Path 209" d="M360.832,142.4l5.666-2.107a4.806,4.806,0,0,1,2.916.066l2.471.8,2.116-.984a4.126,4.126,0,0,1,3.189-.064l5.33,2.155Z" transform="translate(-360.832 -139.819)" fill="#d5717a"/>
            </g>
            <path id="Path_210" data-name="Path 210" d="M360.832,141.724s2.786,9.527,11.011,9.527,10.677-9.661,10.677-9.661Z" transform="translate(-360.832 -139.145)" fill="#d5717a"/>
            <path id="Path_211" data-name="Path 211" d="M362.076,142.144s1.223,4.879,9.294,4.886c7.35.007,9.343-5,9.343-5Z" transform="translate(-360.359 -138.979)" fill="#fff"/>
            <ellipse id="Ellipse_8" data-name="Ellipse 8" cx="0.926" cy="0.926" rx="0.926" ry="0.926" transform="translate(6.119 8.387)" fill="#e0939c"/>
          </g>
        </g>
        <path id="Path_212" data-name="Path 212" d="M351.714,168.237a13.1,13.1,0,0,1-2.377-25.473.844.844,0,0,0,.595-.8h0a.848.848,0,0,0-1.115-.8,14.773,14.773,0,0,0,2.5,28.7c7.285.984,13.069-2.506,15.331-8.823-.467-.264-1.3-.82-1.3-.82C363.525,166.054,358.307,169.046,351.714,168.237Z" transform="translate(-338.559 -36.792)" fill="#773e50"/>
        <path id="Path_213" data-name="Path 213" d="M394,168.237a13.1,13.1,0,0,0,2.379-25.473.842.842,0,0,1-.6-.8h0a.848.848,0,0,1,1.115-.8,14.773,14.773,0,0,1-2.5,28.7c-7.285.984-13.069-2.506-15.332-8.823.467-.264,1.3-.82,1.3-.82C382.191,166.054,387.41,169.046,394,168.237Z" transform="translate(-323.145 -36.792)" fill="#773e50"/>
      </g>
    </g>
    <g id="Group_199" data-name="Group 199" transform="translate(0 0)">
      <g id="Group_188" data-name="Group 188" transform="translate(79.558)">
        <path id="Path_214" data-name="Path 214" d="M211.1,52.114V516.357a13.437,13.437,0,0,0,13.436,13.438H628.583a13.438,13.438,0,0,0,13.438-13.438V52.114a13.438,13.438,0,0,0-13.438-13.438H224.54A13.437,13.437,0,0,0,211.1,52.114ZM614.549,449.4H238.574V64.808H614.549Z" transform="translate(-211.103 -38.676)" fill="#fff"/>
        <path id="Path_215" data-name="Path 215" d="M488.539,357.131a9.937,9.937,0,0,0-14.062.149l-2.533,2.586-2.606-2.566a9.944,9.944,0,1,0-13.954,14.17L465.056,381c.021.019.035.044.055.064a9.886,9.886,0,0,0,5.436,2.724,10.509,10.509,0,0,0,8.624-2.87l9.516-9.719A9.947,9.947,0,0,0,488.539,357.131Z" transform="translate(-119.281 81.419)" fill="#dd8285"/>
      </g>
      <g id="Group_190" data-name="Group 190" transform="translate(0 96.079)">
        <g id="Group_189" data-name="Group 189">
          <rect id="Rectangle_81" data-name="Rectangle 81" width="138.552" height="84.038" rx="9.4" fill="#6a6abb"/>
          <path id="Path_216" data-name="Path 216" d="M187.172,162.581l17.051,24.4a6.059,6.059,0,0,0,9.962-.04l16.733-24.359Z" transform="translate(-140.651 -87.608)" fill="#6a6abb"/>
        </g>
        <path id="Path_217" data-name="Path 217" d="M209.483,130.117a10.832,10.832,0,0,0-15.331.161l-2.761,2.819-2.842-2.8a10.84,10.84,0,1,0-15.21,15.448l10.546,10.386c.022.022.036.05.058.07a10.84,10.84,0,0,0,15.329-.16l10.375-10.594A10.844,10.844,0,0,0,209.483,130.117Z" transform="translate(-147.146 -101.14)" fill="#fff"/>
        <text id="_25" data-name="25" transform="translate(74.684 55.412)" fill="#fff" font-size="32" font-family="SegoeUI, Segoe UI"><tspan x="0" y="0">25</tspan></text>
      </g>
      <g id="Group_192" data-name="Group 192" transform="translate(454.807 20.266)">
        <g id="Group_191" data-name="Group 191">
          <ellipse id="Ellipse_9" data-name="Ellipse 9" cx="45.012" cy="45.013" rx="45.012" ry="45.013" fill="#dd8285"/>
        </g>
        <path id="Path_218" data-name="Path 218" d="M535.961,78.308a9.33,9.33,0,0,0-13.2.139l-2.379,2.428-2.448-2.41a9.336,9.336,0,1,0-13.1,13.305l9.082,8.944c.018.019.03.041.051.061a9.334,9.334,0,0,0,13.2-.138l8.935-9.124A9.341,9.341,0,0,0,535.961,78.308Z" transform="translate(-475.645 -44.876)" fill="#fff"/>
      </g>
      <g id="Group_196" data-name="Group 196" transform="translate(32.741 418.849)">
        <g id="Group_193" data-name="Group 193" transform="translate(0 0)">
          <ellipse id="Ellipse_10" data-name="Ellipse 10" cx="44.492" cy="44.492" rx="44.492" ry="44.492" transform="translate(0 88.846) rotate(-86.818)" fill="#6a6abb"/>
        </g>
        <g id="Group_195" data-name="Group 195" transform="translate(24.959 21.938)">
          <g id="Group_194" data-name="Group 194">
            <path id="Path_219" data-name="Path 219" d="M224.7,398.631c-7.7.133-15.5.236-22.585-.254-2.242-.155-4.18-3.718-1.456-4.841-1.146-.589-2.308-1.155-2.808-2.441a2.4,2.4,0,0,1,1.363-3.181c-2.671.661-3.725-3.578-1.641-4.948a6.245,6.245,0,0,1-2.253-3.611,3.621,3.621,0,0,1,1.626-3.737,5.831,5.831,0,0,1,2.776-.479l9.61-.072c-.867-5.013-1.128-10.475,1.419-14.878.768-1.327,2.829-2.916,4.466-1.9,1.534.958,1.109,3.335,1.031,4.835a16.929,16.929,0,0,0,8.737,15.447S224.621,391.855,224.7,398.631Z" transform="translate(-195.27 -357.968)" fill="#fbfbfb"/>
          </g>
          <rect id="Rectangle_82" data-name="Rectangle 82" width="11.642" height="20.039" transform="translate(43.866 40.645) rotate(180)" fill="#fbfbfb"/>
        </g>
      </g>
      <g id="Group_198" data-name="Group 198" transform="translate(455.083 228.397)">
        <g id="Group_197" data-name="Group 197">
          <rect id="Rectangle_83" data-name="Rectangle 83" width="135.672" height="84.917" rx="9.498" fill="#dd8285"/>
          <path id="Path_220" data-name="Path 220" d="M516.113,259l17.229,24.656a6.124,6.124,0,0,0,10.067-.041L560.317,259Z" transform="translate(-470.568 -183.238)" fill="#dd8285"/>
        </g>
        <path id="Path_221" data-name="Path 221" d="M538.657,226.192a10.944,10.944,0,0,0-15.489.164l-2.791,2.848-2.87-2.827a10.953,10.953,0,1,0-15.371,15.609l10.655,10.495c.022.022.037.05.061.072a10.954,10.954,0,0,0,15.489-.163l10.482-10.7A10.958,10.958,0,0,0,538.657,226.192Z" transform="translate(-477.131 -196.912)" fill="#fff"/>
        <text id="_99" data-name="99" transform="translate(74.001 56.015)" fill="#fff" font-size="32" font-family="SegoeUI, Segoe UI"><tspan x="0" y="0">99</tspan></text>
      </g>
    </g>
  </g>
</svg>
